<svg xmlns="http://www.w3.org/2000/svg" xmlns:xlink="http://www.w3.org/1999/xlink" width="1000" zoomAndPan="magnify" viewBox="0 0 750 374.999991" height="500" preserveAspectRatio="xMidYMid meet" version="1.0"><defs><g/><clipPath id="03ebae1ca9"><path d="M 347.433594 155.90625 L 423.382812 155.90625 L 423.382812 328.242188 L 347.433594 328.242188 Z M 347.433594 155.90625 " clip-rule="nonzero"/></clipPath></defs><path fill="#ffffff" d="M 365.644531 166.476562 C 366.09375 166.460938 366.597656 166.746094 366.597656 166.746094 L 366.707031 167.339844 L 366.707031 168.664062 C 366.707031 168.664062 366.574219 169.296875 366.578125 169.515625 C 366.578125 169.550781 366.554688 169.617188 366.515625 169.703125 C 366.515625 169.703125 366.238281 169.730469 366.257812 169.386719 C 366.273438 169.046875 366.363281 167.410156 366.363281 167.410156 C 366.363281 167.410156 366.214844 166.925781 366 166.890625 C 365.789062 166.855469 365.445312 166.925781 365.464844 167.769531 C 365.480469 168.617188 365.699219 170.75 365.699219 170.75 L 366.515625 169.703125 C 366.324219 170.140625 365.734375 171.09375 365.734375 171.09375 C 365.734375 171.09375 365.429688 170.089844 365.355469 168.777344 C 365.285156 167.464844 365.195312 166.496094 365.644531 166.476562 " fill-opacity="1" fill-rule="nonzero"/><g clip-path="url(#03ebae1ca9)"><path fill="#ffffff" d="M 348.402344 325.367188 C 348.402344 325.367188 348.449219 325.484375 348.089844 325.582031 C 347.730469 325.679688 347.585938 326.421875 347.921875 326.683594 C 348.257812 326.949219 352.914062 328.167969 357.019531 328.242188 C 361.125 328.3125 367.484375 327.140625 367.484375 327.140625 L 368.253906 327.378906 C 368.253906 327.378906 372.9375 326.753906 374.257812 326.5625 C 375.578125 326.371094 375.023438 325.320312 374.976562 325.03125 C 374.929688 324.742188 374.257812 324.382812 374.257812 324.382812 C 374.542969 323.5 374.089844 321.820312 373.679688 320.71875 C 373.273438 319.617188 372.910156 318.925781 372.910156 316.386719 C 372.910156 313.847656 373.871094 311.667969 374.640625 308.648438 C 375.410156 305.632812 377.761719 298.734375 378.21875 295.667969 C 378.671875 292.601562 377.738281 285.945312 377.738281 285.945312 C 379.898438 287.742188 381.792969 287.886719 384.914062 289.5625 C 388.035156 291.238281 393.125 293.992188 397.230469 295.742188 C 401.335938 297.488281 408.824219 301.203125 410.121094 302.46875 C 411.417969 303.738281 412.929688 306.710938 413.167969 308.027344 C 413.410156 309.34375 414.082031 310.398438 414.632812 311.785156 C 415.1875 313.175781 414.464844 314.851562 414.417969 314.949219 C 414.371094 315.042969 414.347656 315.976562 414.464844 316.746094 C 414.585938 317.511719 414.152344 317.847656 413.816406 318.421875 C 413.480469 318.996094 413.554688 319.761719 414.128906 319.882812 C 414.707031 320 415.570312 319.691406 415.570312 319.691406 C 415.570312 319.691406 415.257812 320.195312 415.1875 320.695312 C 415.113281 321.199219 415.882812 321.34375 416.171875 321.078125 C 416.457031 320.816406 418.066406 318.660156 419.484375 315.257812 C 420.898438 311.859375 421.835938 304.433594 421.835938 304.433594 L 422.101562 304.289062 C 422.101562 304.289062 422.316406 303.238281 422.773438 301.5625 C 423.226562 299.882812 423.515625 297.417969 423.324219 296.480469 C 423.132812 295.539062 422.125 295.933594 422.027344 296.027344 C 421.933594 296.125 421.90625 296.699219 421.378906 296.386719 C 420.851562 296.074219 419.265625 295.933594 417.203125 295.742188 C 415.136719 295.550781 413.074219 294.878906 411.152344 293.441406 C 409.234375 292.003906 403.808594 288.195312 398.476562 284.484375 C 393.148438 280.773438 389.90625 280.820312 389.089844 280.484375 C 388.277344 280.148438 387.988281 279.597656 387.601562 277.585938 C 387.21875 275.574219 387.988281 271.265625 388.417969 268.871094 C 388.851562 266.472656 389.066406 263.242188 389.019531 262.976562 C 388.972656 262.714844 389.5 262.066406 389.5 262.066406 C 389.5 262.066406 390.316406 262.332031 390.75 262.332031 C 391.179688 262.332031 391.347656 261.949219 391.515625 261.730469 C 391.683594 261.515625 392.765625 260.4375 393.386719 259.457031 C 394.011719 258.476562 394.289062 257.242188 395.945312 254.65625 C 397.601562 252.070312 397.277344 245.0625 397.277344 244.128906 C 397.277344 243.195312 395.332031 236.730469 395.1875 234.429688 C 395.046875 232.128906 395.1875 230.191406 395.691406 227.820312 C 396.199219 225.449219 398.550781 213.164062 399.03125 208.804688 C 399.511719 204.445312 398.574219 198.792969 398.765625 198.3125 C 398.957031 197.835938 399.054688 197.308594 399.148438 197.234375 C 399.246094 197.164062 399.941406 195.847656 400.710938 196.707031 C 401.480469 197.570312 401.597656 197.144531 401.597656 197.144531 C 401.597656 197.144531 400.878906 195.992188 400.589844 195.34375 C 400.300781 194.699219 400.542969 194.121094 400.832031 194.3125 C 401.117188 194.503906 401.550781 195.414062 401.71875 195.703125 C 401.886719 195.992188 402.007812 196.683594 402.007812 195.679688 C 402.007812 194.671875 401.3125 193.835938 400.6875 192.804688 C 400.0625 191.777344 400.015625 190.601562 399.292969 190.074219 C 398.574219 189.546875 398.308594 188.566406 397.78125 187.679688 C 397.253906 186.792969 397.398438 187.105469 397.589844 187.128906 C 397.78125 187.152344 397.519531 186.265625 395.597656 185.285156 C 393.675781 184.304688 394.972656 184.039062 393.652344 183.152344 C 392.332031 182.265625 394.0625 182.84375 393.386719 182.050781 C 392.714844 181.261719 391.058594 179.679688 390.75 179.371094 C 390.4375 179.058594 390.21875 178.148438 389.988281 177.859375 C 389.753906 177.574219 390.003906 177.046875 389.988281 176.710938 C 389.96875 176.375 388.921875 176.015625 388.707031 176.015625 C 388.492188 176.015625 389.042969 174.078125 389.402344 173.191406 C 389.765625 172.304688 390.292969 171.394531 389.765625 166.988281 C 389.234375 162.582031 388.25 159.921875 386.28125 157.863281 C 384.316406 155.804688 381.769531 155.996094 380.089844 155.921875 C 378.410156 155.851562 376.394531 156.019531 375.769531 156.160156 C 375.144531 156.304688 373.054688 156.90625 373.054688 156.90625 C 371.832031 157.316406 371.566406 157.910156 370.464844 158.4375 C 369.359375 158.964844 369.359375 158.773438 369.117188 159.226562 C 368.878906 159.683594 368.808594 159.058594 368.542969 159.394531 C 368.277344 159.730469 367.992188 160.808594 367.824219 161.3125 C 367.65625 161.8125 368.183594 159.96875 367.484375 161.3125 C 366.789062 162.652344 367.847656 163.273438 367.847656 163.371094 C 367.847656 163.464844 367.367188 164.785156 366.980469 165.238281 C 366.597656 165.695312 366.550781 166.484375 367.007812 167.15625 C 367.460938 167.824219 366.765625 168.878906 366.765625 168.878906 C 366.765625 168.878906 366.023438 170.386719 365.230469 171.417969 C 364.4375 172.449219 365.015625 173.023438 365.46875 173.238281 C 365.925781 173.453125 365.972656 173.644531 366.046875 174.054688 C 366.117188 174.460938 365.757812 175.347656 365.78125 175.871094 C 365.804688 176.398438 366.550781 176.855469 366.550781 176.855469 C 366.550781 176.855469 366.140625 177.046875 366.402344 177.667969 C 366.660156 178.292969 366.476562 178.722656 366.40625 179.703125 C 366.332031 180.6875 366.980469 181.117188 367.558594 181.523438 C 368.132812 181.933594 370.152344 181.90625 371.046875 181.859375 C 371.945312 181.8125 372.742188 183.65625 373.609375 185.140625 C 374.472656 186.625 374.855469 187.226562 374.855469 187.226562 C 374.304688 188.136719 374.449219 190.097656 374.425781 190.195312 C 374.398438 190.289062 373.96875 192.328125 373.777344 192.949219 C 373.582031 193.570312 372.9375 197.140625 372.625 198.625 C 372.3125 200.109375 371.878906 200.949219 371.230469 203.558594 C 370.582031 206.167969 371.855469 209.402344 372.023438 209.691406 C 372.191406 209.976562 373.128906 211.4375 373.105469 211.703125 C 373.078125 211.964844 373.464844 214.097656 373.703125 214.3125 C 373.945312 214.527344 374.207031 215.796875 374.230469 216.179688 C 374.257812 216.5625 374.449219 219.195312 374.566406 219.339844 C 374.6875 219.484375 374.640625 220.898438 374.566406 221.234375 C 374.496094 221.570312 373.894531 223.914062 373.65625 224.273438 C 373.414062 224.632812 373.222656 227.4375 373.078125 228.203125 C 372.9375 228.96875 372.648438 230.40625 372.621094 230.527344 C 372.589844 230.644531 372.503906 231.003906 372.621094 231.699219 C 372.734375 232.394531 372.480469 232.753906 372.359375 233.519531 C 372.238281 234.285156 372.289062 235.675781 372.3125 236.105469 C 372.335938 236.539062 372.382812 237.542969 372.382812 238.09375 C 372.382812 238.644531 372.238281 239.867188 372.167969 240.011719 C 372.09375 240.152344 372.503906 240.65625 372.597656 240.777344 C 372.695312 240.894531 372.769531 241.28125 372.886719 242.476562 C 373.007812 243.675781 373.078125 245.015625 373.078125 245.015625 C 373.078125 245.015625 373.152344 247.027344 373.007812 247.816406 C 372.863281 248.609375 372.527344 251.984375 372.527344 252.175781 C 372.527344 252.367188 372.527344 252.703125 372.480469 253.253906 C 372.433594 253.804688 371.785156 255.265625 371.710938 255.433594 C 371.640625 255.601562 371.902344 256.03125 371.902344 256.03125 C 371.902344 256.03125 371.6875 256.441406 370.703125 258.402344 C 369.71875 260.367188 368.132812 266.355469 367.75 268.390625 C 367.367188 270.425781 366.164062 273.945312 365.757812 275.503906 C 365.351562 277.058594 365.492188 281.132812 366.117188 283.09375 C 366.742188 285.058594 366.453125 286.976562 365.757812 288.9375 C 365.0625 290.902344 364.988281 297.226562 365.207031 302.207031 C 365.421875 307.1875 364.964844 310.253906 363.957031 314.46875 C 362.949219 318.683594 359.421875 319.28125 357.90625 319.929688 C 356.394531 320.578125 352.386719 322.515625 351.136719 322.996094 C 349.890625 323.472656 349.265625 323.234375 348.859375 323.257812 C 348.449219 323.28125 347.226562 323.1875 347.464844 324.097656 C 347.707031 325.007812 348.402344 325.367188 348.402344 325.367188 Z M 383.90625 178.386719 C 383.929688 178.003906 384.53125 177.8125 384.9375 178.148438 C 385.347656 178.484375 385.753906 179.152344 386.164062 179.488281 C 386.570312 179.824219 387.265625 180.253906 387.195312 180.734375 C 387.125 181.214844 387.003906 182.484375 386.929688 182.792969 C 386.859375 183.105469 386.425781 183.511719 386.402344 183.25 C 386.378906 182.984375 386.355469 181.308594 385.875 180.925781 C 385.394531 180.542969 384.316406 180.089844 384.171875 180.207031 C 384.171875 180.207031 383.882812 178.769531 383.90625 178.386719 " fill-opacity="1" fill-rule="nonzero"/></g><path fill="#ffffff" d="M 377.953125 204.035156 C 378.023438 206.214844 379.226562 209.234375 379.273438 210.335938 C 379.320312 211.4375 379.464844 211.84375 379.824219 212.804688 C 380.183594 213.761719 380.496094 214.960938 380.496094 214.960938 C 380.496094 214.960938 380.859375 216.15625 380.953125 216.371094 C 381.050781 216.585938 380.976562 217.042969 380.832031 216.996094 C 380.691406 216.945312 380.664062 216.109375 380.066406 215.773438 C 379.464844 215.4375 379.441406 215.53125 379.921875 216.15625 C 380.402344 216.777344 380.640625 217.257812 380.738281 217.472656 C 380.832031 217.6875 380.738281 217.785156 380.929688 218.09375 C 381.121094 218.40625 381.457031 218.980469 381.457031 218.980469 C 381.457031 218.980469 382.128906 218.695312 382.539062 219.101562 C 382.945312 219.507812 383.425781 220.96875 383.691406 221.113281 C 383.953125 221.257812 384.914062 221.113281 384.914062 221.113281 C 384.914062 221.113281 385.15625 222.191406 385.082031 222.597656 C 385.011719 223.003906 385.207031 224.394531 385.410156 224.371094 C 385.609375 224.347656 387.050781 224.226562 387.050781 223.964844 C 387.050781 223.699219 386.738281 221.761719 386.617188 221.570312 C 386.5 221.378906 386.089844 220.296875 386.042969 219.796875 C 385.996094 219.292969 385.898438 217.519531 385.898438 217.210938 C 385.898438 216.898438 385.851562 214.40625 385.851562 214.289062 C 385.851562 214.167969 385.636719 213.90625 386.617188 215.316406 C 387.601562 216.730469 388.585938 219.484375 388.730469 219.917969 C 388.875 220.347656 391.3125 225.496094 391.730469 226 C 392.152344 226.5 396.628906 235.410156 396.726562 235.988281 C 396.820312 236.5625 398.117188 243.433594 400.542969 243.867188 C 402.96875 244.296875 410.335938 244.25 411.128906 243.867188 C 411.921875 243.480469 414.730469 243.554688 416.242188 239.003906 C 417.753906 234.453125 418.8125 229.425781 418.1875 226.621094 C 417.5625 223.820312 416.578125 222.8125 416.171875 222.191406 C 415.761719 221.570312 414.179688 217.976562 414.035156 217.546875 C 413.890625 217.113281 413.699219 214.671875 413.960938 213.425781 C 414.226562 212.179688 414.371094 210.625 413.335938 209.953125 C 412.304688 209.28125 411.175781 208.875 411.03125 208.660156 C 410.890625 208.445312 409.160156 207.152344 408.609375 206.214844 C 408.054688 205.28125 406.113281 202.984375 405.609375 202.191406 C 405.105469 201.402344 404 200.539062 403.519531 199.988281 C 403.039062 199.4375 402.078125 198.792969 402.078125 198.792969 C 402.078125 198.792969 401.429688 198.671875 400.878906 198.433594 C 400.328125 198.195312 398.09375 195.824219 397.757812 195.152344 C 397.421875 194.480469 393.75 188.613281 391.972656 187.75 C 390.195312 186.890625 387.316406 185.789062 384.914062 187.535156 C 382.515625 189.285156 380.664062 191.941406 380.113281 194.863281 C 379.5625 197.785156 379.417969 198.3125 379.273438 198.792969 C 379.128906 199.269531 377.878906 201.859375 377.953125 204.035156 Z M 384.171875 207.269531 C 384.171875 207.269531 382.5625 202.503906 382.441406 202.050781 C 382.320312 201.59375 381.265625 194.9375 382.25 193.5 C 383.234375 192.0625 383.640625 190.625 386.019531 190.074219 C 388.394531 189.523438 390.28125 189.375 391.371094 190.074219 C 391.371094 190.074219 393.796875 191.367188 395.070312 193.476562 C 396.339844 195.582031 397.925781 198.792969 397.972656 200.179688 C 398.023438 201.570312 398.671875 205.378906 398.429688 207.703125 C 398.191406 210.023438 397.542969 214.957031 397.398438 215.390625 C 397.253906 215.820312 396.101562 222.191406 395.957031 222.40625 C 395.8125 222.621094 394.398438 223.101562 393.292969 221.378906 C 392.1875 219.652344 390.722656 216.179688 389.859375 214.625 C 388.996094 213.066406 385.777344 209.472656 385.273438 208.851562 C 384.769531 208.230469 384.171875 207.269531 384.171875 207.269531 Z M 381.242188 206.816406 C 381.53125 205.546875 382.179688 206.816406 382.417969 207.679688 C 382.65625 208.539062 383.136719 209.066406 383.570312 209.882812 C 384.003906 210.695312 384.171875 211.054688 384.242188 211.796875 C 384.3125 212.539062 384.433594 213.878906 384.484375 214.625 C 384.53125 215.367188 384.433594 215.941406 384.484375 216.683594 C 384.53125 217.425781 384.484375 218.335938 384.484375 218.335938 C 384.484375 218.335938 384.484375 218.886719 383.859375 218.335938 C 383.234375 217.785156 382.730469 216.660156 382.828125 216.585938 C 382.921875 216.515625 383.449219 216.683594 383.546875 216.300781 C 383.640625 215.917969 383.523438 215.605469 383.1875 214.480469 C 382.851562 213.351562 382.058594 212.085938 381.722656 210.765625 C 381.386719 209.449219 380.953125 208.085938 381.242188 206.816406 Z M 379.34375 200.375 C 379.753906 200.347656 379.679688 201.117188 379.679688 201.882812 C 379.679688 202.648438 379.96875 203.941406 380.042969 204.0625 C 380.113281 204.179688 380.28125 204.515625 380.257812 205.019531 C 380.234375 205.523438 379.847656 205.90625 379.847656 205.90625 C 379.847656 205.90625 379.441406 203.988281 379.34375 203.582031 C 379.25 203.175781 378.9375 200.398438 379.34375 200.375 " fill-opacity="1" fill-rule="nonzero"/><path fill="#ffffff" d="M 366.597656 167.730469 C 366.644531 167.898438 366.597656 168.902344 366.597656 168.902344 L 366.8125 169.246094 C 366.8125 169.246094 366.863281 169.382812 367.148438 170.578125 C 367.4375 171.777344 368.566406 171.441406 369.214844 171.152344 C 369.863281 170.867188 369.71875 167.609375 369.847656 167.25 C 369.972656 166.890625 370.558594 167.152344 370.992188 167.25 C 371.421875 167.347656 375.578125 168.664062 376.296875 168.855469 C 377.015625 169.046875 377.738281 169.835938 378.625 169.214844 C 379.511719 168.589844 381.121094 168.78125 381.121094 168.78125 C 381.121094 168.78125 378.554688 167.847656 377.183594 167.417969 C 375.816406 166.988281 371.160156 166.222656 370.632812 166.222656 C 370.101562 166.222656 369.335938 165.933594 369.046875 165.933594 C 368.757812 165.933594 367.726562 165.765625 367.460938 166.222656 C 367.199219 166.675781 366.597656 166.746094 366.597656 166.746094 C 366.597656 166.746094 366.550781 167.5625 366.597656 167.730469 Z M 367.320312 166.699219 C 367.972656 165.933594 368.734375 166.222656 368.949219 166.242188 C 369.167969 166.269531 369.191406 166.9375 369.191406 166.9375 C 369.191406 166.9375 369.359375 169.191406 369.191406 169.910156 C 369.023438 170.625 368.710938 171.082031 368.183594 171.011719 C 367.65625 170.9375 367.34375 170.410156 367.222656 169.527344 C 367.101562 168.640625 366.664062 167.464844 367.320312 166.699219 " fill-opacity="1" fill-rule="nonzero"/><path fill="#ffffff" d="M 382.394531 208.753906 C 381.660156 211.402344 381.164062 214.320312 379.617188 215.777344 C 378.070312 217.238281 373.171875 223.484375 371.546875 226.242188 C 369.925781 229 367.273438 231.757812 366.402344 232.453125 C 365.527344 233.148438 364.609375 233.898438 364.253906 234.421875 C 363.902344 234.941406 363.542969 235.753906 362.910156 236.085938 C 362.277344 236.414062 361.445312 237.210938 361.1875 237.558594 C 360.929688 237.910156 359.289062 239.886719 358.503906 241.867188 C 357.714844 243.847656 356.558594 245.910156 356.914062 246.726562 C 357.269531 247.542969 357.617188 248.226562 358.082031 248.394531 C 358.550781 248.5625 359.148438 248.335938 359.148438 248.335938 C 359.148438 248.335938 359.359375 249.246094 359.824219 249.605469 C 360.285156 249.96875 360.769531 250.117188 361.023438 249.667969 C 361.277344 249.214844 361.5 248.921875 361.476562 249.414062 C 361.457031 249.902344 361.503906 249.980469 361.980469 250.125 C 362.457031 250.269531 362.796875 250.257812 363.105469 249.675781 C 363.410156 249.097656 363.386719 248.59375 363.472656 248.785156 C 363.558594 248.972656 364.015625 249.71875 364.585938 249.558594 C 365.15625 249.402344 365.730469 248.921875 365.929688 247.863281 C 366.125 246.804688 367.277344 245.257812 367.304688 244.371094 C 367.332031 243.484375 367.695312 242.773438 367.9375 242.054688 C 368.183594 241.332031 368.089844 239.421875 369.101562 238.429688 C 370.117188 237.441406 375.066406 232.449219 376.875 230.921875 C 378.679688 229.390625 382.023438 225.464844 383.453125 223.355469 C 384.878906 221.246094 386.125 219.65625 386.855469 218.832031 C 387.589844 218.003906 388.375 217.296875 388.890625 215.75 C 389.40625 214.203125 391.972656 209.917969 393.21875 207.476562 C 394.460938 205.039062 395.707031 202.988281 395.707031 202.988281 L 387.175781 196.953125 C 387.175781 196.953125 383.128906 206.105469 382.394531 208.753906 Z M 364.289062 246.773438 C 364.3125 247.351562 364.257812 247.726562 364.058594 247.867188 C 363.859375 248.011719 363.695312 247.730469 363.695312 247.730469 C 363.695312 247.730469 363.871094 246.945312 363.949219 246.820312 C 364.03125 246.699219 364.265625 246.199219 364.289062 246.773438 Z M 361.992188 246.746094 C 361.882812 247.394531 361.605469 248.296875 361.605469 248.296875 C 361.605469 248.296875 361.382812 248.921875 361.261719 248.453125 C 361.261719 248.453125 361.417969 247.683594 361.460938 247.496094 C 361.507812 247.308594 362.101562 246.097656 361.992188 246.746094 Z M 359.945312 245.640625 C 360.035156 246.25 359.367188 247.394531 359.472656 247.492188 C 359.472656 247.492188 358.835938 247.261719 359.050781 246.609375 C 359.261719 245.957031 359.851562 245.035156 359.945312 245.640625 " fill-opacity="1" fill-rule="nonzero"/><g fill="#ffc408" fill-opacity="1"><g transform="translate(155.210478, 126.547054)"><g><path d="M 90.183594 -64.695312 L 71.164062 -64.695312 L 62.234375 -27.429688 L 53.308594 -64.695312 L 38.039062 -64.695312 L 29.242188 -27.429688 L 20.3125 -64.695312 L 1.164062 -64.695312 L 20.3125 0 L 37.652344 0 L 45.804688 -31.699219 L 53.824219 0 L 71.035156 0 Z M 90.183594 -64.695312 "/></g></g></g><g fill="#ffc408" fill-opacity="1"><g transform="translate(246.555968, 126.547054)"><g><path d="M 46.449219 -9.445312 L 49.8125 0 L 70.257812 0 L 46.320312 -64.695312 L 25.101562 -64.695312 L 0.90625 0 L 21.21875 0 L 24.714844 -9.445312 Z M 40.757812 -24.972656 L 30.40625 -24.972656 L 35.710938 -42.699219 Z M 40.757812 -24.972656 "/></g></g></g><g fill="#ffc408" fill-opacity="1"><g transform="translate(317.588076, 126.547054)"><g><path d="M 53.824219 -18.113281 L 25.230469 -18.113281 L 25.230469 -64.695312 L 4.269531 -64.695312 L 4.269531 0 L 53.824219 0 Z M 53.824219 -18.113281 "/></g></g></g><g fill="#ffc408" fill-opacity="1"><g transform="translate(375.034816, 126.547054)"><g><path d="M 39.332031 0 L 61.199219 0 L 41.015625 -37.132812 L 60.8125 -64.695312 L 39.722656 -64.695312 L 25.230469 -44.121094 L 25.230469 -64.695312 L 4.269531 -64.695312 L 4.269531 0 L 25.230469 0 L 25.230469 -14.878906 L 28.59375 -19.796875 Z M 39.332031 0 "/></g></g></g><g fill="#ffc408" fill-opacity="1"><g transform="translate(436.492484, 126.547054)"><g/></g></g><g fill="#ffc408" fill-opacity="1"><g transform="translate(453.959412, 126.547054)"><g><path d="M 60.035156 -46.578125 L 60.035156 -64.695312 L 3.753906 -64.695312 L 3.753906 -46.578125 L 21.476562 -46.578125 L 21.476562 0 L 42.4375 0 L 42.4375 -46.578125 Z M 60.035156 -46.578125 "/></g></g></g><g fill="#ffc408" fill-opacity="1"><g transform="translate(517.745983, 126.547054)"><g><path d="M 33.898438 1.035156 C 53.308594 1.035156 64.304688 -11.128906 64.304688 -32.347656 C 64.304688 -53.695312 53.308594 -65.730469 33.898438 -65.730469 C 14.492188 -65.730469 3.492188 -53.695312 3.492188 -32.347656 C 3.492188 -11.128906 14.492188 1.035156 33.898438 1.035156 Z M 33.898438 -17.207031 C 27.6875 -17.207031 24.195312 -22.644531 24.195312 -32.347656 C 24.195312 -42.179688 27.6875 -47.613281 33.898438 -47.613281 C 39.980469 -47.613281 43.472656 -42.179688 43.605469 -32.347656 C 43.472656 -22.644531 39.980469 -17.207031 33.898438 -17.207031 Z M 33.898438 -17.207031 "/></g></g></g><g fill="#ffffff" fill-opacity="1"><g transform="translate(148.644227, 328.138552)"><g><path d="M 45.5 0 C 43.925781 0 42.898438 -0.789062 42.421875 -2.375 L 5.21875 -162.828125 L 5.21875 -163.78125 C 5.21875 -165.195312 6.085938 -165.90625 7.828125 -165.90625 L 36.96875 -165.90625 C 38.863281 -165.90625 39.894531 -165.035156 40.0625 -163.296875 L 58.0625 -72.296875 C 58.226562 -71.816406 58.46875 -71.578125 58.78125 -71.578125 C 59.09375 -71.578125 59.328125 -71.816406 59.484375 -72.296875 L 76.796875 -163.296875 C 76.953125 -165.035156 77.976562 -165.90625 79.875 -165.90625 L 106.1875 -165.90625 C 107.925781 -165.90625 108.953125 -165.035156 109.265625 -163.296875 L 128.21875 -72.296875 C 128.382812 -71.816406 128.625 -71.578125 128.9375 -71.578125 C 129.25 -71.578125 129.484375 -71.816406 129.640625 -72.296875 L 146.71875 -163.296875 C 146.875 -165.035156 147.898438 -165.90625 149.796875 -165.90625 L 177.765625 -165.90625 C 179.816406 -165.90625 180.601562 -164.878906 180.125 -162.828125 L 145.53125 -2.609375 C 145.207031 -0.867188 144.179688 0 142.453125 0 L 115.65625 0 C 113.925781 0 112.898438 -0.867188 112.578125 -2.609375 L 93.390625 -97.890625 C 93.222656 -98.359375 92.984375 -98.59375 92.671875 -98.59375 C 92.359375 -98.59375 92.125 -98.359375 91.96875 -97.890625 L 74.65625 -2.609375 C 74.5 -0.867188 73.472656 0 71.578125 0 Z M 45.5 0 "/></g></g></g><g fill="#ffffff" fill-opacity="1"><g transform="translate(454.246803, 324.658477)"><g><path d="M 94.125 -163.109375 C 94.125 -163.898438 94.398438 -164.570312 94.953125 -165.125 C 95.503906 -165.675781 96.175781 -165.953125 96.96875 -165.953125 L 124.46875 -165.953125 C 125.257812 -165.953125 125.929688 -165.675781 126.484375 -165.125 C 127.035156 -164.570312 127.3125 -163.898438 127.3125 -163.109375 L 127.3125 -2.84375 C 127.3125 -2.050781 127.035156 -1.378906 126.484375 -0.828125 C 125.929688 -0.273438 125.257812 0 124.46875 0 L 95.546875 0 C 93.960938 0 92.851562 -0.710938 92.21875 -2.140625 L 46.9375 -98.625 C 46.625 -99.09375 46.304688 -99.328125 45.984375 -99.328125 C 45.671875 -99.328125 45.515625 -99.015625 45.515625 -98.390625 L 45.75 -2.84375 C 45.75 -2.050781 45.472656 -1.378906 44.921875 -0.828125 C 44.367188 -0.273438 43.695312 0 42.90625 0 L 15.40625 0 C 14.613281 0 13.941406 -0.273438 13.390625 -0.828125 C 12.835938 -1.378906 12.5625 -2.050781 12.5625 -2.84375 L 12.5625 -163.109375 C 12.5625 -163.898438 12.835938 -164.570312 13.390625 -165.125 C 13.941406 -165.675781 14.613281 -165.953125 15.40625 -165.953125 L 44.09375 -165.953125 C 45.675781 -165.953125 46.785156 -165.242188 47.421875 -163.828125 L 92.703125 -67.328125 C 93.015625 -66.859375 93.328125 -66.625 93.640625 -66.625 C 93.960938 -66.625 94.125 -66.9375 94.125 -67.5625 Z M 94.125 -163.109375 "/></g></g></g><g fill="#ffffff" fill-opacity="1"><g transform="translate(234.261702, 24.826874)"><g><path d="M 0.214844 0 L 2.253906 0 L 3.6875 -3.3125 L 5.121094 0 L 7.167969 0 L 5.007812 -4.652344 L 7.167969 -8.875 L 5.027344 -8.875 L 3.6875 -5.925781 L 2.355469 -8.875 L 0.214844 -8.875 L 2.378906 -4.652344 Z M 0.214844 0 "/></g></g></g><g fill="#ffffff" fill-opacity="1"><g transform="translate(243.004806, 24.826874)"><g><path d="M 2.539062 -8.875 L 0.695312 -8.875 L 0.695312 0 L 2.539062 0 Z M 2.539062 -8.875 "/></g></g></g><g fill="#ffffff" fill-opacity="1"><g transform="translate(247.587515, 24.826874)"><g><path d="M 2.378906 -8.898438 L 0.160156 0 L 2.140625 0 L 2.558594 -1.910156 L 4.734375 -1.910156 L 5.164062 0 L 7.132812 0 L 4.914062 -8.898438 Z M 3.640625 -6.769531 L 4.367188 -3.503906 L 2.914062 -3.503906 Z M 3.640625 -6.769531 "/></g></g></g><g fill="#ffffff" fill-opacity="1"><g transform="translate(256.239672, 24.826874)"><g><path d="M 7.132812 -8.875 L 5.382812 -8.875 L 5.382812 -5.152344 L 5.4375 -3.367188 L 2.582031 -8.875 L 0.636719 -8.875 L 0.636719 0 L 2.378906 0 L 2.378906 -3.71875 L 2.320312 -5.507812 L 5.1875 0 L 7.132812 0 Z M 7.132812 -8.875 "/></g></g></g><g fill="#ffffff" fill-opacity="1"><g transform="translate(265.369256, 24.826874)"><g><path d="M 3.300781 -3.710938 C 4.585938 -3.539062 4.914062 -3.1875 4.914062 -2.546875 L 4.914062 -2.492188 C 4.914062 -1.898438 4.492188 -1.445312 3.640625 -1.445312 L 3.539062 -1.445312 C 2.683594 -1.445312 2.230469 -1.910156 2.230469 -3.027344 L 0.386719 -3.027344 L 0.386719 -2.925781 C 0.386719 -0.785156 1.492188 0.148438 3.582031 0.148438 C 5.664062 0.148438 6.792969 -0.84375 6.792969 -2.546875 L 6.792969 -2.664062 C 6.792969 -4.3125 5.8125 -4.972656 3.878906 -5.234375 C 2.582031 -5.40625 2.320312 -5.746094 2.320312 -6.394531 L 2.320312 -6.449219 C 2.320312 -7.019531 2.753906 -7.429688 3.492188 -7.429688 L 3.59375 -7.429688 C 4.527344 -7.429688 4.882812 -6.894531 4.882812 -5.734375 L 6.722656 -5.734375 L 6.722656 -5.972656 C 6.722656 -8.054688 5.769531 -9.023438 3.582031 -9.023438 C 1.558594 -9.023438 0.457031 -7.988281 0.457031 -6.382812 L 0.457031 -6.257812 C 0.457031 -4.652344 1.367188 -3.972656 3.300781 -3.710938 Z M 3.300781 -3.710938 "/></g></g></g><g fill="#ffffff" fill-opacity="1"><g transform="translate(273.907741, 24.826874)"><g><path d="M 0.535156 -8.875 L 0.820312 -5.199219 L 2.195312 -5.199219 L 2.480469 -8.875 Z M 0.535156 -8.875 "/></g></g></g><g fill="#ffffff" fill-opacity="1"><g transform="translate(278.285841, 24.826874)"><g/></g></g><g fill="#ffffff" fill-opacity="1"><g transform="translate(281.925065, 24.826874)"><g><path d="M 6.609375 0.0234375 L 8.976562 0.0234375 L 10.445312 -8.875 L 8.523438 -8.875 L 7.667969 -2.492188 L 6.472656 -8.875 L 4.1875 -8.875 L 2.992188 -2.492188 L 2.140625 -8.875 L 0.214844 -8.875 L 1.683594 0.0234375 L 4.039062 0.0234375 L 5.324219 -6.769531 Z M 6.609375 0.0234375 "/></g></g></g><g fill="#ffffff" fill-opacity="1"><g transform="translate(293.941927, 24.826874)"><g><path d="M 0.636719 -8.875 L 0.636719 0 L 6.0625 0 L 6.0625 -1.59375 L 2.480469 -1.59375 L 2.480469 -3.730469 L 5.496094 -3.730469 L 5.496094 -5.324219 L 2.480469 -5.324219 L 2.480469 -7.28125 L 6.0625 -7.28125 L 6.0625 -8.875 Z M 0.636719 -8.875 "/></g></g></g><g fill="#ffffff" fill-opacity="1"><g transform="translate(301.821115, 24.826874)"><g><path d="M 5.757812 0 L 5.757812 -1.59375 L 2.480469 -1.59375 L 2.480469 -8.875 L 0.636719 -8.875 L 0.636719 0 Z M 5.757812 0 "/></g></g></g><g fill="#ffffff" fill-opacity="1"><g transform="translate(309.109216, 24.826874)"><g><path d="M 5.757812 0 L 5.757812 -1.59375 L 2.480469 -1.59375 L 2.480469 -8.875 L 0.636719 -8.875 L 0.636719 0 Z M 5.757812 0 "/></g></g></g><g fill="#ffffff" fill-opacity="1"><g transform="translate(316.397316, 24.826874)"><g><path d="M 0.636719 -8.875 L 0.636719 0 L 3.640625 0 C 5.074219 0 6.632812 -0.386719 6.632812 -2.546875 L 6.632812 -2.777344 C 6.632812 -3.730469 6.179688 -4.277344 5.539062 -4.585938 C 6.054688 -4.882812 6.40625 -5.382812 6.40625 -6.1875 L 6.40625 -6.417969 C 6.40625 -8.5 4.9375 -8.875 3.550781 -8.875 Z M 3.699219 -3.730469 C 4.210938 -3.730469 4.765625 -3.527344 4.765625 -2.71875 L 4.765625 -2.617188 C 4.765625 -1.808594 4.210938 -1.59375 3.699219 -1.59375 L 2.480469 -1.59375 L 2.480469 -3.730469 Z M 3.539062 -7.28125 C 4.015625 -7.28125 4.539062 -7.109375 4.539062 -6.382812 L 4.539062 -6.234375 C 4.539062 -5.507812 4.015625 -5.335938 3.539062 -5.335938 L 2.480469 -5.335938 L 2.480469 -7.28125 Z M 3.539062 -7.28125 "/></g></g></g><g fill="#ffffff" fill-opacity="1"><g transform="translate(324.935799, 24.826874)"><g><path d="M 0.636719 -8.875 L 0.636719 0 L 6.0625 0 L 6.0625 -1.59375 L 2.480469 -1.59375 L 2.480469 -3.730469 L 5.496094 -3.730469 L 5.496094 -5.324219 L 2.480469 -5.324219 L 2.480469 -7.28125 L 6.0625 -7.28125 L 6.0625 -8.875 Z M 0.636719 -8.875 "/></g></g></g><g fill="#ffffff" fill-opacity="1"><g transform="translate(332.814987, 24.826874)"><g><path d="M 2.539062 -8.875 L 0.695312 -8.875 L 0.695312 0 L 2.539062 0 Z M 2.539062 -8.875 "/></g></g></g><g fill="#ffffff" fill-opacity="1"><g transform="translate(337.397693, 24.826874)"><g><path d="M 7.132812 -8.875 L 5.382812 -8.875 L 5.382812 -5.152344 L 5.4375 -3.367188 L 2.582031 -8.875 L 0.636719 -8.875 L 0.636719 0 L 2.378906 0 L 2.378906 -3.71875 L 2.320312 -5.507812 L 5.1875 0 L 7.132812 0 Z M 7.132812 -8.875 "/></g></g></g><g fill="#ffffff" fill-opacity="1"><g transform="translate(346.527274, 24.826874)"><g><path d="M 3.960938 0.148438 C 5.507812 0.148438 6.40625 -0.339844 7.066406 -0.886719 L 7.066406 -4.800781 L 4.050781 -4.800781 L 4.050781 -3.207031 L 5.222656 -3.207031 L 5.222656 -1.785156 C 4.949219 -1.59375 4.539062 -1.445312 4.015625 -1.445312 L 3.914062 -1.445312 C 2.617188 -1.445312 2.320312 -2.433594 2.320312 -4.210938 L 2.320312 -4.664062 C 2.320312 -6.441406 2.628906 -7.429688 3.84375 -7.429688 L 3.949219 -7.429688 C 4.972656 -7.429688 5.234375 -6.722656 5.234375 -5.507812 L 7.078125 -5.507812 L 7.078125 -5.917969 C 7.078125 -8.136719 5.960938 -9.023438 3.84375 -9.023438 C 1.546875 -9.023438 0.445312 -7.738281 0.445312 -4.664062 L 0.445312 -4.210938 C 0.445312 -1.136719 1.546875 0.148438 3.960938 0.148438 Z M 3.960938 0.148438 "/></g></g></g><g fill="#ffffff" fill-opacity="1"><g transform="translate(355.54318, 24.826874)"><g/></g></g><g fill="#ffffff" fill-opacity="1"><g transform="translate(359.182401, 24.826874)"><g><path d="M 2.539062 -8.875 L 0.695312 -8.875 L 0.695312 0 L 2.539062 0 Z M 2.539062 -8.875 "/></g></g></g><g fill="#ffffff" fill-opacity="1"><g transform="translate(363.765107, 24.826874)"><g><path d="M 7.132812 -8.875 L 5.382812 -8.875 L 5.382812 -5.152344 L 5.4375 -3.367188 L 2.582031 -8.875 L 0.636719 -8.875 L 0.636719 0 L 2.378906 0 L 2.378906 -3.71875 L 2.320312 -5.507812 L 5.1875 0 L 7.132812 0 Z M 7.132812 -8.875 "/></g></g></g><g fill="#ffffff" fill-opacity="1"><g transform="translate(372.894688, 24.826874)"><g><path d="M 7.132812 -8.875 L 5.382812 -8.875 L 5.382812 -5.152344 L 5.4375 -3.367188 L 2.582031 -8.875 L 0.636719 -8.875 L 0.636719 0 L 2.378906 0 L 2.378906 -3.71875 L 2.320312 -5.507812 L 5.1875 0 L 7.132812 0 Z M 7.132812 -8.875 "/></g></g></g><g fill="#ffffff" fill-opacity="1"><g transform="translate(382.024269, 24.826874)"><g><path d="M 3.824219 0.148438 C 6.132812 0.148438 7.214844 -1.136719 7.214844 -4.210938 L 7.214844 -4.664062 C 7.214844 -7.738281 6.132812 -9.023438 3.824219 -9.023438 C 1.523438 -9.023438 0.445312 -7.738281 0.445312 -4.664062 L 0.445312 -4.210938 C 0.445312 -1.136719 1.523438 0.148438 3.824219 0.148438 Z M 3.777344 -1.445312 C 2.640625 -1.445312 2.308594 -2.433594 2.308594 -4.210938 L 2.308594 -4.664062 C 2.308594 -6.441406 2.640625 -7.429688 3.777344 -7.429688 L 3.878906 -7.429688 C 5.015625 -7.429688 5.335938 -6.441406 5.335938 -4.664062 L 5.335938 -4.210938 C 5.335938 -2.433594 5.015625 -1.445312 3.878906 -1.445312 Z M 3.777344 -1.445312 "/></g></g></g><g fill="#ffffff" fill-opacity="1"><g transform="translate(391.040176, 24.826874)"><g><path d="M 4.914062 0.0234375 L 7.132812 -8.875 L 5.152344 -8.875 L 3.640625 -2.105469 L 2.128906 -8.875 L 0.160156 -8.875 L 2.378906 0.0234375 Z M 4.914062 0.0234375 "/></g></g></g><g fill="#ffffff" fill-opacity="1"><g transform="translate(399.692332, 24.826874)"><g><path d="M 2.378906 -8.898438 L 0.160156 0 L 2.140625 0 L 2.558594 -1.910156 L 4.734375 -1.910156 L 5.164062 0 L 7.132812 0 L 4.914062 -8.898438 Z M 3.640625 -6.769531 L 4.367188 -3.503906 L 2.914062 -3.503906 Z M 3.640625 -6.769531 "/></g></g></g><g fill="#ffffff" fill-opacity="1"><g transform="translate(408.344488, 24.826874)"><g><path d="M 4.085938 -7.28125 L 6.144531 -7.28125 L 6.144531 -8.875 L 0.195312 -8.875 L 0.195312 -7.28125 L 2.242188 -7.28125 L 2.242188 0 L 4.085938 0 Z M 4.085938 -7.28125 "/></g></g></g><g fill="#ffffff" fill-opacity="1"><g transform="translate(416.041807, 24.826874)"><g><path d="M 2.539062 -8.875 L 0.695312 -8.875 L 0.695312 0 L 2.539062 0 Z M 2.539062 -8.875 "/></g></g></g><g fill="#ffffff" fill-opacity="1"><g transform="translate(420.624513, 24.826874)"><g><path d="M 4.914062 0.0234375 L 7.132812 -8.875 L 5.152344 -8.875 L 3.640625 -2.105469 L 2.128906 -8.875 L 0.160156 -8.875 L 2.378906 0.0234375 Z M 4.914062 0.0234375 "/></g></g></g><g fill="#ffffff" fill-opacity="1"><g transform="translate(429.276681, 24.826874)"><g><path d="M 0.636719 -8.875 L 0.636719 0 L 6.0625 0 L 6.0625 -1.59375 L 2.480469 -1.59375 L 2.480469 -3.730469 L 5.496094 -3.730469 L 5.496094 -5.324219 L 2.480469 -5.324219 L 2.480469 -7.28125 L 6.0625 -7.28125 L 6.0625 -8.875 Z M 0.636719 -8.875 "/></g></g></g><g fill="#ffffff" fill-opacity="1"><g transform="translate(437.155869, 24.826874)"><g/></g></g><g fill="#ffffff" fill-opacity="1"><g transform="translate(440.79509, 24.826874)"><g><path d="M 2.480469 -3.1875 L 3.550781 -3.1875 C 4.996094 -3.1875 6.632812 -3.550781 6.632812 -5.917969 L 6.632812 -6.144531 C 6.632812 -8.5 4.996094 -8.875 3.550781 -8.875 L 0.636719 -8.875 L 0.636719 0 L 2.480469 0 Z M 2.480469 -4.777344 L 2.480469 -7.28125 L 3.628906 -7.28125 C 4.128906 -7.28125 4.765625 -7.089844 4.765625 -6.085938 L 4.765625 -5.972656 C 4.765625 -4.972656 4.128906 -4.777344 3.628906 -4.777344 Z M 2.480469 -4.777344 "/></g></g></g><g fill="#ffffff" fill-opacity="1"><g transform="translate(449.083495, 24.826874)"><g><path d="M 2.480469 -3.1875 L 3.425781 -3.1875 L 4.640625 0 L 6.632812 0 L 5.234375 -3.449219 C 6.03125 -3.777344 6.632812 -4.484375 6.632812 -5.917969 L 6.632812 -6.144531 C 6.632812 -8.5 4.996094 -8.875 3.550781 -8.875 L 0.636719 -8.875 L 0.636719 0 L 2.480469 0 Z M 2.480469 -4.777344 L 2.480469 -7.28125 L 3.628906 -7.28125 C 4.128906 -7.28125 4.765625 -7.089844 4.765625 -6.085938 L 4.765625 -5.972656 C 4.765625 -4.972656 4.128906 -4.777344 3.628906 -4.777344 Z M 2.480469 -4.777344 "/></g></g></g><g fill="#ffffff" fill-opacity="1"><g transform="translate(457.531043, 24.826874)"><g><path d="M 0.636719 -8.875 L 0.636719 0 L 6.0625 0 L 6.0625 -1.59375 L 2.480469 -1.59375 L 2.480469 -3.730469 L 5.496094 -3.730469 L 5.496094 -5.324219 L 2.480469 -5.324219 L 2.480469 -7.28125 L 6.0625 -7.28125 L 6.0625 -8.875 Z M 0.636719 -8.875 "/></g></g></g><g fill="#ffffff" fill-opacity="1"><g transform="translate(465.410231, 24.826874)"><g><path d="M 3.300781 -3.710938 C 4.585938 -3.539062 4.914062 -3.1875 4.914062 -2.546875 L 4.914062 -2.492188 C 4.914062 -1.898438 4.492188 -1.445312 3.640625 -1.445312 L 3.539062 -1.445312 C 2.683594 -1.445312 2.230469 -1.910156 2.230469 -3.027344 L 0.386719 -3.027344 L 0.386719 -2.925781 C 0.386719 -0.785156 1.492188 0.148438 3.582031 0.148438 C 5.664062 0.148438 6.792969 -0.84375 6.792969 -2.546875 L 6.792969 -2.664062 C 6.792969 -4.3125 5.8125 -4.972656 3.878906 -5.234375 C 2.582031 -5.40625 2.320312 -5.746094 2.320312 -6.394531 L 2.320312 -6.449219 C 2.320312 -7.019531 2.753906 -7.429688 3.492188 -7.429688 L 3.59375 -7.429688 C 4.527344 -7.429688 4.882812 -6.894531 4.882812 -5.734375 L 6.722656 -5.734375 L 6.722656 -5.972656 C 6.722656 -8.054688 5.769531 -9.023438 3.582031 -9.023438 C 1.558594 -9.023438 0.457031 -7.988281 0.457031 -6.382812 L 0.457031 -6.257812 C 0.457031 -4.652344 1.367188 -3.972656 3.300781 -3.710938 Z M 3.300781 -3.710938 "/></g></g></g><g fill="#ffffff" fill-opacity="1"><g transform="translate(473.948713, 24.826874)"><g><path d="M 0.636719 -8.875 L 0.636719 0 L 6.0625 0 L 6.0625 -1.59375 L 2.480469 -1.59375 L 2.480469 -3.730469 L 5.496094 -3.730469 L 5.496094 -5.324219 L 2.480469 -5.324219 L 2.480469 -7.28125 L 6.0625 -7.28125 L 6.0625 -8.875 Z M 0.636719 -8.875 "/></g></g></g><g fill="#ffffff" fill-opacity="1"><g transform="translate(481.827901, 24.826874)"><g><path d="M 7.132812 -8.875 L 5.382812 -8.875 L 5.382812 -5.152344 L 5.4375 -3.367188 L 2.582031 -8.875 L 0.636719 -8.875 L 0.636719 0 L 2.378906 0 L 2.378906 -3.71875 L 2.320312 -5.507812 L 5.1875 0 L 7.132812 0 Z M 7.132812 -8.875 "/></g></g></g><g fill="#ffffff" fill-opacity="1"><g transform="translate(490.957493, 24.826874)"><g><path d="M 4.085938 -7.28125 L 6.144531 -7.28125 L 6.144531 -8.875 L 0.195312 -8.875 L 0.195312 -7.28125 L 2.242188 -7.28125 L 2.242188 0 L 4.085938 0 Z M 4.085938 -7.28125 "/></g></g></g><g fill="#ffffff" fill-opacity="1"><g transform="translate(498.654812, 24.826874)"><g><path d="M 3.300781 -3.710938 C 4.585938 -3.539062 4.914062 -3.1875 4.914062 -2.546875 L 4.914062 -2.492188 C 4.914062 -1.898438 4.492188 -1.445312 3.640625 -1.445312 L 3.539062 -1.445312 C 2.683594 -1.445312 2.230469 -1.910156 2.230469 -3.027344 L 0.386719 -3.027344 L 0.386719 -2.925781 C 0.386719 -0.785156 1.492188 0.148438 3.582031 0.148438 C 5.664062 0.148438 6.792969 -0.84375 6.792969 -2.546875 L 6.792969 -2.664062 C 6.792969 -4.3125 5.8125 -4.972656 3.878906 -5.234375 C 2.582031 -5.40625 2.320312 -5.746094 2.320312 -6.394531 L 2.320312 -6.449219 C 2.320312 -7.019531 2.753906 -7.429688 3.492188 -7.429688 L 3.59375 -7.429688 C 4.527344 -7.429688 4.882812 -6.894531 4.882812 -5.734375 L 6.722656 -5.734375 L 6.722656 -5.972656 C 6.722656 -8.054688 5.769531 -9.023438 3.582031 -9.023438 C 1.558594 -9.023438 0.457031 -7.988281 0.457031 -6.382812 L 0.457031 -6.257812 C 0.457031 -4.652344 1.367188 -3.972656 3.300781 -3.710938 Z M 3.300781 -3.710938 "/></g></g></g><g fill="#ffffff" fill-opacity="1"><g transform="translate(26.540234, 262.016232)"><g><path d="M -12.214844 -17.027344 L -12.214844 -13.4375 L -5.179688 -11.75 L -12.214844 -10.066406 L -12.214844 -7.183594 L -5.179688 -5.519531 L -12.214844 -3.835938 L -12.214844 -0.21875 L 0 -3.835938 L 0 -7.109375 L -5.984375 -8.648438 L 0 -10.164062 L 0 -13.410156 Z M -12.214844 -17.027344 "/></g></g></g><g fill="#ffffff" fill-opacity="1"><g transform="translate(26.540234, 244.77199)"><g><path d="M -1.785156 -8.769531 L 0 -9.40625 L 0 -13.265625 L -12.214844 -8.746094 L -12.214844 -4.738281 L 0 -0.171875 L 0 -4.007812 L -1.785156 -4.664062 Z M -4.714844 -7.695312 L -4.714844 -5.742188 L -8.0625 -6.742188 Z M -4.714844 -7.695312 "/></g></g></g><g fill="#ffffff" fill-opacity="1"><g transform="translate(26.540234, 231.362513)"><g><path d="M -3.421875 -10.164062 L -3.421875 -4.761719 L -12.214844 -4.761719 L -12.214844 -0.804688 L 0 -0.804688 L 0 -10.164062 Z M -3.421875 -10.164062 "/></g></g></g><g fill="#ffffff" fill-opacity="1"><g transform="translate(26.540234, 220.517692)"><g><path d="M 0 -7.425781 L 0 -11.554688 L -7.011719 -7.742188 L -12.214844 -11.480469 L -12.214844 -7.5 L -8.332031 -4.761719 L -12.214844 -4.761719 L -12.214844 -0.804688 L 0 -0.804688 L 0 -4.761719 L -2.808594 -4.761719 L -3.738281 -5.398438 Z M 0 -7.425781 "/></g></g></g><g fill="#ffffff" fill-opacity="1"><g transform="translate(26.540234, 208.915696)"><g/></g></g><g fill="#ffffff" fill-opacity="1"><g transform="translate(26.540234, 205.618287)"><g><path d="M -8.792969 -11.335938 L -12.214844 -11.335938 L -12.214844 -0.707031 L -8.792969 -0.707031 L -8.792969 -4.054688 L 0 -4.054688 L 0 -8.011719 L -8.792969 -8.011719 Z M -8.792969 -11.335938 "/></g></g></g><g fill="#ffffff" fill-opacity="1"><g transform="translate(26.540234, 193.576631)"><g><path d="M 0.195312 -6.398438 C 0.195312 -10.066406 -2.101562 -12.140625 -6.105469 -12.140625 C -10.136719 -12.140625 -12.410156 -10.066406 -12.410156 -6.398438 C -12.410156 -2.734375 -10.136719 -0.660156 -6.105469 -0.660156 C -2.101562 -0.660156 0.195312 -2.734375 0.195312 -6.398438 Z M -3.25 -6.398438 C -3.25 -5.226562 -4.273438 -4.566406 -6.105469 -4.566406 C -7.964844 -4.566406 -8.988281 -5.226562 -8.988281 -6.398438 C -8.988281 -7.546875 -7.964844 -8.207031 -6.105469 -8.234375 C -4.273438 -8.207031 -3.25 -7.546875 -3.25 -6.398438 Z M -3.25 -6.398438 "/></g></g></g><g fill="#ffffff" fill-opacity="1"><g transform="translate(26.540234, 180.802222)"><g/></g></g><g fill="#ffffff" fill-opacity="1"><g transform="translate(26.540234, 177.504813)"><g><path d="M -12.214844 -17.027344 L -12.214844 -13.4375 L -5.179688 -11.75 L -12.214844 -10.066406 L -12.214844 -7.183594 L -5.179688 -5.519531 L -12.214844 -3.835938 L -12.214844 -0.21875 L 0 -3.835938 L 0 -7.109375 L -5.984375 -8.648438 L 0 -10.164062 L 0 -13.410156 Z M -12.214844 -17.027344 "/></g></g></g><g fill="#ffffff" fill-opacity="1"><g transform="translate(26.540234, 160.26057)"><g><path d="M -12.214844 -4.761719 L -12.214844 -0.804688 L 0 -0.804688 L 0 -4.761719 Z M -12.214844 -4.761719 "/></g></g></g><g fill="#ffffff" fill-opacity="1"><g transform="translate(26.540234, 154.691612)"><g><path d="M 0 -0.804688 L 0 -4.761719 L -5.667969 -4.761719 L -0.0234375 -8.085938 L 0 -11.433594 L -12.214844 -11.433594 L -12.214844 -7.449219 L -6.570312 -7.449219 L -12.238281 -4.152344 L -12.238281 -0.804688 Z M 0 -0.804688 "/></g></g></g><g fill="#ffffff" fill-opacity="1"><g transform="translate(734.704353, 262.016232)"><g><path d="M -12.214844 -17.027344 L -12.214844 -13.4375 L -5.179688 -11.75 L -12.214844 -10.066406 L -12.214844 -7.183594 L -5.179688 -5.519531 L -12.214844 -3.835938 L -12.214844 -0.21875 L 0 -3.835938 L 0 -7.109375 L -5.984375 -8.648438 L 0 -10.164062 L 0 -13.410156 Z M -12.214844 -17.027344 "/></g></g></g><g fill="#ffffff" fill-opacity="1"><g transform="translate(734.704353, 244.77199)"><g><path d="M -1.785156 -8.769531 L 0 -9.40625 L 0 -13.265625 L -12.214844 -8.746094 L -12.214844 -4.738281 L 0 -0.171875 L 0 -4.007812 L -1.785156 -4.664062 Z M -4.714844 -7.695312 L -4.714844 -5.742188 L -8.0625 -6.742188 Z M -4.714844 -7.695312 "/></g></g></g><g fill="#ffffff" fill-opacity="1"><g transform="translate(734.704353, 231.362513)"><g><path d="M -3.421875 -10.164062 L -3.421875 -4.761719 L -12.214844 -4.761719 L -12.214844 -0.804688 L 0 -0.804688 L 0 -10.164062 Z M -3.421875 -10.164062 "/></g></g></g><g fill="#ffffff" fill-opacity="1"><g transform="translate(734.704353, 220.517692)"><g><path d="M 0 -7.425781 L 0 -11.554688 L -7.011719 -7.742188 L -12.214844 -11.480469 L -12.214844 -7.5 L -8.332031 -4.761719 L -12.214844 -4.761719 L -12.214844 -0.804688 L 0 -0.804688 L 0 -4.761719 L -2.808594 -4.761719 L -3.738281 -5.398438 Z M 0 -7.425781 "/></g></g></g><g fill="#ffffff" fill-opacity="1"><g transform="translate(734.704353, 208.915696)"><g/></g></g><g fill="#ffffff" fill-opacity="1"><g transform="translate(734.704353, 205.618287)"><g><path d="M -8.792969 -11.335938 L -12.214844 -11.335938 L -12.214844 -0.707031 L -8.792969 -0.707031 L -8.792969 -4.054688 L 0 -4.054688 L 0 -8.011719 L -8.792969 -8.011719 Z M -8.792969 -11.335938 "/></g></g></g><g fill="#ffffff" fill-opacity="1"><g transform="translate(734.704353, 193.576631)"><g><path d="M 0.195312 -6.398438 C 0.195312 -10.066406 -2.101562 -12.140625 -6.105469 -12.140625 C -10.136719 -12.140625 -12.410156 -10.066406 -12.410156 -6.398438 C -12.410156 -2.734375 -10.136719 -0.660156 -6.105469 -0.660156 C -2.101562 -0.660156 0.195312 -2.734375 0.195312 -6.398438 Z M -3.25 -6.398438 C -3.25 -5.226562 -4.273438 -4.566406 -6.105469 -4.566406 C -7.964844 -4.566406 -8.988281 -5.226562 -8.988281 -6.398438 C -8.988281 -7.546875 -7.964844 -8.207031 -6.105469 -8.234375 C -4.273438 -8.207031 -3.25 -7.546875 -3.25 -6.398438 Z M -3.25 -6.398438 "/></g></g></g><g fill="#ffffff" fill-opacity="1"><g transform="translate(734.704353, 180.802222)"><g/></g></g><g fill="#ffffff" fill-opacity="1"><g transform="translate(734.704353, 177.504813)"><g><path d="M -12.214844 -17.027344 L -12.214844 -13.4375 L -5.179688 -11.75 L -12.214844 -10.066406 L -12.214844 -7.183594 L -5.179688 -5.519531 L -12.214844 -3.835938 L -12.214844 -0.21875 L 0 -3.835938 L 0 -7.109375 L -5.984375 -8.648438 L 0 -10.164062 L 0 -13.410156 Z M -12.214844 -17.027344 "/></g></g></g><g fill="#ffffff" fill-opacity="1"><g transform="translate(734.704353, 160.26057)"><g><path d="M -12.214844 -4.761719 L -12.214844 -0.804688 L 0 -0.804688 L 0 -4.761719 Z M -12.214844 -4.761719 "/></g></g></g><g fill="#ffffff" fill-opacity="1"><g transform="translate(734.704353, 154.691612)"><g><path d="M 0 -0.804688 L 0 -4.761719 L -5.667969 -4.761719 L -0.0234375 -8.085938 L 0 -11.433594 L -12.214844 -11.433594 L -12.214844 -7.449219 L -6.570312 -7.449219 L -12.238281 -4.152344 L -12.238281 -0.804688 Z M 0 -0.804688 "/></g></g></g></svg>